<svg id="Layer_1" data-name="Layer 1" xmlns="http://www.w3.org/2000/svg" viewBox="0 0 2044.74 382.94">
    <defs>
        <style>
            .cls-1{fill:none;stroke:#231f20;stroke-miterlimit:10;stroke-width:8px;}.cls-2{fill:url(#linear-gradient);}.cls-3{fill:#fff;}.cls-4{font-size:207.89px;font-family:SUTBold,
            SUT;}.cls-5{font-weight:700;}.cls-6{font-family:SUTRegular, SUT;}
        </style>
        <linearGradient id="linear-gradient" x1="361.03" y1="1260.88" x2="577.65" y2="1260.88"
                        gradientTransform="translate(-226.3 -589.85)" gradientUnits="userSpaceOnUse">
            <stop offset="0" stop-color="#f7941d"/>
            <stop offset="1" stop-color="#f15a29"/>
        </linearGradient>
    </defs>
    <title>logo_header</title>
    <rect class="cls-1" x="141.77" y="603.01" width="201.85" height="201.85" rx="28.88" ry="28.88"
          transform="translate(465.96 -460.25) rotate(45)"/>
    <rect class="cls-2" x="134.74" y="562.72" width="216.62" height="216.62" rx="31.42" ry="31.42"
          transform="translate(442.8 -470.14) rotate(45)"/>
    <path class="cls-3"
          d="M181.81,620a15.57,15.57,0,0,0-3.89,6.91q-1.35,6.42,5.06,12.82a21.89,21.89,0,0,0,6.07,4.38q6.21,2.91,10.47-1.35,3.19-3.18,2.61-6.48a27.2,27.2,0,0,0-3.81-8.44l-3.93-6.32q-3.85-6.19-4.53-9.69-1.17-6.06,3.7-10.92a16.15,16.15,0,0,1,12.19-5.1q6.92.16,13.42,6.66a24.24,24.24,0,0,1,7.19,13.12q1.21,7.15-5.3,13.66l-5-5a14.35,14.35,0,0,0,3.18-6.44q.73-5.38-4.82-10.94-4.48-4.49-8.42-4.48a8.87,8.87,0,0,0-6.54,2.61,6.36,6.36,0,0,0-1.88,6.52q.66,2.37,4.75,9l4.06,6.55a22.55,22.55,0,0,1,3.45,8.4q.87,6.35-4.34,11.56-6.5,6.5-13.89,4.68a28.6,28.6,0,0,1-13.49-7.91q-7.1-7.1-7.4-14.85t6.08-14Z"
          transform="translate(-102.89 -494.82)"/>
    <path class="cls-3"
          d="M265.92,656.83a19.6,19.6,0,0,1-4.39,13.38l-5.16-5.16a15.15,15.15,0,0,0,2.55-9.42c-.24-3.18-1.91-6.33-5-9.42a16.24,16.24,0,0,0-13.21-5.1q-7.55.57-15.93,9-6.87,6.85-8,14.28T221.9,678q5.74,5.75,13.24,4.25a24.25,24.25,0,0,0,8.6-3.84l5.16,5.16A25.07,25.07,0,0,1,234,689.41q-9.61.42-17.43-7.38a23,23,0,0,1-7.18-15.43q-.55-11.48,10.83-22.86,8.64-8.65,18.7-9.67,10.91-1.12,19.5,7.47Q265.78,648.88,265.92,656.83Z"
          transform="translate(-102.89 -494.82)"/>
    <path class="cls-3"
          d="M137.63,664.12a15.67,15.67,0,0,0-3.89,6.91q-1.34,6.42,5.06,12.83a21.54,21.54,0,0,0,6.08,4.37q6.21,2.91,10.46-1.34,3.19-3.2,2.62-6.48a27.07,27.07,0,0,0-3.82-8.45l-3.93-6.32q-3.86-6.2-4.53-9.69-1.16-6.06,3.71-10.92a16.14,16.14,0,0,1,12.18-5.1q6.93.18,13.42,6.67a24.14,24.14,0,0,1,7.19,13.12q1.22,7.14-5.3,13.66l-5-5a14.17,14.17,0,0,0,3.18-6.45q.74-5.37-4.82-10.94-4.49-4.49-8.42-4.48a8.83,8.83,0,0,0-6.53,2.61,6.35,6.35,0,0,0-1.89,6.52q.67,2.37,4.76,9l4.05,6.56a22.63,22.63,0,0,1,3.46,8.4q.87,6.35-4.35,11.56-6.48,6.48-13.88,4.67A28.53,28.53,0,0,1,134,688q-7.11-7.11-7.4-14.85t6.08-14Z"
          transform="translate(-102.89 -494.82)"/>
    <path class="cls-3"
          d="M202.68,676.25,178.53,700.4a19.81,19.81,0,0,0-5.46,8.68q-1.87,6.64,3.78,12.3,6.78,6.78,13.82,4.62,3.83-1.18,8.05-5.42l24.14-24.14,5.35,5.34-21.94,21.94q-7.22,7.2-13,9.14-10.65,3.5-20.58-6.43t-6.4-20.55q1.94-5.83,9.14-13l21.94-21.93Z"
          transform="translate(-102.89 -494.82)"/>
    <path class="cls-3"
          d="M264.69,738.27,260,742.92l-13.17-13.16-34.41,34.41-5.34-5.35,34.41-34.41-13.16-13.16,4.65-4.66Z"
          transform="translate(-102.89 -494.82)"/>
    <text class="cls-4" transform="translate(313.57 161.05)">
        <tspan class="cls-5">สภานักศึกษา</tspan>
        <tspan class="cls-6">
            <tspan x="0" y="156.52">มหาวิทยาลัยเทคโนโลยีสุรนารี</tspan>
        </tspan>
    </text>
</svg>
