<svg id="Layer_1" data-name="Layer 1" xmlns="http://www.w3.org/2000/svg" viewBox="0 0 904.62 964.62">
    <defs>
        <style>
            .cls-1{fill:none;stroke:#231f20;stroke-miterlimit:10;stroke-width:8px;}.cls-2{fill:url(#linear-gradient);}.cls-3{fill:#fff;}
        </style>
        <linearGradient id="linear-gradient" x1="91.07" y1="439.17" x2="767.99" y2="439.17"
                        gradientTransform="translate(26.4 20.58)" gradientUnits="userSpaceOnUse">
            <stop offset="0" stop-color="#f7941d"/>
            <stop offset="1" stop-color="#f15a29"/>
        </linearGradient>
    </defs>
    <title>SCSUTWEB</title>
    <rect class="cls-1" x="139.46" y="230.31" width="630.77" height="630.77" rx="114.62" ry="114.62"
          transform="translate(519.09 -161.79) rotate(45)"/>
    <rect class="cls-2" x="117.47" y="121.29" width="676.92" height="676.92" rx="114.62" ry="114.62"
          transform="translate(458.64 -187.74) rotate(45)"/>
    <path class="cls-3"
          d="M245.33,295.84q-9.5,10.57-11.73,20.85-4.07,19.38,15.26,38.71a65.39,65.39,0,0,0,18.35,13.2q18.74,8.79,31.58-4.05,9.63-9.65,7.89-19.56-1.89-9.93-11.52-25.49L283.3,300.41q-11.64-18.69-13.68-29.25-3.5-18.27,11.19-33,15.9-15.88,36.79-15.38t40.5,20.11q18,18,21.71,39.61t-16,41.23l-15-15q8.31-10.62,9.6-19.45,2.24-16.24-14.55-33-13.55-13.56-25.41-13.54t-19.73,7.88Q290,259.31,293,270.33q2,7.16,14.34,27.18l12.25,19.8q8.86,14.31,10.42,25.35,2.63,19.15-13.11,34.89Q297.34,397.14,275,391.67T234.3,367.81Q212.85,346.36,212,323t18.36-42.16Z"/>
    <path class="cls-3"
          d="M499.22,407.17q.42,24-13.24,40.38L470.4,432q8.81-14,7.7-28.42T463,375.09q-17.1-17.11-39.88-15.38t-48.08,27q-20.73,20.73-24.12,43.13t15.46,41.24q17.34,17.34,40,12.85,12-2.34,26-11.61l15.57,15.57Q427.17,504.48,403,505.5q-29.07,1.29-52.63-22.28Q330,462.91,328.69,436.65q-1.71-34.63,32.67-69,26.1-26.11,56.46-29.17,32.9-3.39,58.85,22.55Q498.8,383.16,499.22,407.17Z"/>
    <path class="cls-3"
          d="M112,429.17Q102.5,439.75,100.26,450q-4.07,19.38,15.26,38.7a65.33,65.33,0,0,0,18.34,13.21q18.75,8.79,31.59-4.06,9.63-9.63,7.89-19.55t-11.52-25.49L150,433.75Q138.32,415,136.28,404.5q-3.5-18.27,11.19-33,15.9-15.9,36.79-15.39t40.5,20.12q18,18,21.71,39.61t-16,41.23l-15-15q8.31-10.64,9.6-19.46,2.22-16.23-14.55-33Q197,376.09,185.1,376.1T165.37,384q-8.67,8.67-5.68,19.68,2,7.17,14.34,27.19l12.25,19.8Q195.15,465,196.7,476q2.63,19.15-13.11,34.89Q164,530.47,141.68,525T101,501.14q-21.45-21.45-22.34-44.82T97,414.16Z"/>
    <path class="cls-3"
          d="M308.33,465.78l-72.89,72.88Q222.6,551.5,219,564.87q-5.65,20,11.43,37.11,20.46,20.47,41.71,13.95,11.52-3.58,24.28-16.34l72.88-72.89,16.14,16.14-66.23,66.22q-21.75,21.75-39.35,27.59-32.15,10.56-62.11-19.41t-19.32-62q5.84-17.61,27.59-39.35l66.22-66.23Z"/>
    <path class="cls-3" d="M495.51,653l-14,14-39.74-39.73L337.86,731.15,321.73,715,425.6,611.15l-39.73-39.74,14-14Z"/>
</svg>
